<svg width="17" height="19" viewBox="0 0 17 19" fill="none" xmlns="http://www.w3.org/2000/svg">
<path d="M10.7782 9.025C10.7782 9.6045 10.3668 10.0795 9.84562 10.0795C9.33362 10.0795 8.91304 9.6045 8.91304 9.025C8.91304 8.4455 9.32447 7.9705 9.84562 7.9705C10.3668 7.9705 10.7782 8.4455 10.7782 9.025ZM6.50847 7.9705C5.98733 7.9705 5.5759 8.4455 5.5759 9.025C5.5759 9.6045 5.99647 10.0795 6.50847 10.0795C7.02962 10.0795 7.44104 9.6045 7.44104 9.025C7.45019 8.4455 7.02962 7.9705 6.50847 7.9705ZM16.1633 1.957V19C13.86 16.885 14.5966 17.5851 11.921 15.0005L12.4056 16.758H2.03762C1.00447 16.758 0.16333 15.884 0.16333 14.801V1.957C0.16333 0.874 1.00447 0 2.03762 0H14.289C15.3222 0 16.1633 0.874 16.1633 1.957ZM13.5576 10.963C13.5576 7.904 12.241 5.4245 12.241 5.4245C10.9245 4.3985 9.6719 4.427 9.6719 4.427L9.5439 4.579C11.0982 5.073 11.8205 5.7855 11.8205 5.7855C9.64865 4.54868 7.09747 4.54846 4.99076 5.51C4.65247 5.6715 4.45133 5.7855 4.45133 5.7855C4.45133 5.7855 5.21019 5.035 6.8559 4.541L6.76447 4.427C6.76447 4.427 5.5119 4.3985 4.19533 5.4245C4.19533 5.4245 2.87876 7.904 2.87876 10.963C2.87876 10.963 3.64676 12.3405 5.66733 12.407C5.66733 12.407 6.00562 11.9795 6.2799 11.6185C5.11876 11.2575 4.6799 10.4975 4.6799 10.4975C4.8144 10.5953 5.03619 10.7221 5.05476 10.735C6.59797 11.633 8.79004 11.9272 10.7599 11.0675C11.0799 10.944 11.4365 10.7635 11.8113 10.507C11.8113 10.507 11.3542 11.286 10.1565 11.6375C10.4308 11.9985 10.7599 12.407 10.7599 12.407C12.7805 12.3405 13.5576 10.963 13.5576 10.963Z" fill="white"/>
</svg>
