<svg width="840" height="406" viewBox="0 0 840 406" fill="none" xmlns="http://www.w3.org/2000/svg">
<line x1="622.195" y1="19.6317" x2="132.203" y2="315.669" stroke="url(#paint0_linear)"/>
<line x1="327.737" y1="0.427958" x2="13.0708" y2="190.539" stroke="url(#paint1_linear)"/>
<line x1="314.934" y1="90.0455" x2="0.268069" y2="280.156" stroke="url(#paint2_linear)"/>
<line x1="566.005" y1="253.928" x2="171.066" y2="36.7119" stroke="#DEDFF4" stroke-dasharray="7 7"/>
<line x1="839.338" y1="230.243" x2="444.4" y2="13.0272" stroke="url(#paint3_linear)" stroke-dasharray="7 7"/>
<line x1="749.72" y1="243.046" x2="489.395" y2="99.867" stroke="#DEDFF4"/>
<line x1="596.59" y1="109.249" x2="106.598" y2="405.286" stroke="url(#paint4_linear)" stroke-dasharray="7 7"/>
<path d="M690.309 210.565C689.715 210.707 689.043 210.707 688.449 210.565L688.683 210.239C688.47 210.188 688.269 210.112 688.094 210.011L684.922 208.18L684.489 208.43L678.146 204.767L678.579 204.517L672.235 200.855L671.802 201.105L665.458 197.443L665.891 197.193L659.547 193.531L659.114 193.781L652.77 190.118L653.203 189.868L646.859 186.206L646.426 186.456L640.083 182.794L640.516 182.544L634.172 178.881L633.739 179.131L627.395 175.469L627.828 175.219L621.484 171.557L621.051 171.807L614.707 168.144L615.14 167.894L608.796 164.232L608.363 164.482L602.019 160.82L602.452 160.57L599.281 158.739C599.106 158.638 598.975 158.522 598.886 158.399L598.32 158.534C598.075 158.191 598.075 157.803 598.32 157.46L598.886 157.595C598.975 157.472 599.106 157.356 599.281 157.255L602.54 155.374L602.107 155.124L608.627 151.36L609.06 151.61L615.58 147.846L615.147 147.596L621.667 143.832L622.1 144.082L628.619 140.318L628.186 140.068L634.706 136.304L635.139 136.554L641.659 132.79L641.226 132.541L647.746 128.777L648.179 129.027L651.438 127.145C651.613 127.044 651.814 126.968 652.027 126.917L651.793 126.59C652.387 126.449 653.059 126.449 653.653 126.59L653.419 126.917C653.632 126.968 653.833 127.044 654.008 127.145L657.179 128.976L657.613 128.726L663.956 132.388L663.523 132.638L669.867 136.3L670.3 136.051L676.644 139.713L676.211 139.963L682.555 143.625L682.988 143.375L689.332 147.037L688.899 147.287L695.243 150.95L695.676 150.7L702.019 154.362L701.586 154.612L707.93 158.274L708.363 158.024L714.707 161.687L714.274 161.937L720.618 165.599L721.051 165.349L727.395 169.011L726.962 169.261L733.306 172.924L733.739 172.674L740.083 176.336L739.65 176.586L742.821 178.417C742.996 178.518 743.127 178.634 743.216 178.757L743.782 178.622C744.027 178.965 744.027 179.352 743.782 179.695L743.216 179.56C743.127 179.683 742.996 179.799 742.821 179.9L739.562 181.782L739.995 182.032L733.475 185.796L733.042 185.546L726.522 189.31L726.955 189.56L720.435 193.324L720.002 193.074L713.483 196.837L713.916 197.087L707.396 200.851L706.963 200.601L700.443 204.365L700.876 204.615L694.356 208.379L693.923 208.129L690.664 210.011C690.489 210.112 690.288 210.188 690.075 210.239L690.309 210.565Z" fill="#4548B0" fill-opacity="0.1" stroke="#5D64D2" stroke-dasharray="7 7"/>
<path d="M87.6395 227.041C87.0481 227.193 86.3766 227.205 85.7802 227.073L86.0086 226.743C85.7943 226.695 85.5925 226.623 85.4158 226.525L82.062 224.667L81.6334 224.924L74.9259 221.207L75.3545 220.949L68.6469 217.232L68.2183 217.489L61.5108 213.772L61.9394 213.514L55.2318 209.797L54.8032 210.055L48.0957 206.337L48.5243 206.08L41.8167 202.362L41.3881 202.62L34.6806 198.902L35.1091 198.645L28.4016 194.927L27.973 195.185L21.2655 191.468L21.694 191.21L18.3403 189.351C18.1636 189.253 18.0305 189.14 17.9401 189.018L17.3767 189.163C17.125 188.825 17.1182 188.437 17.3579 188.09L17.926 188.215C18.0122 188.09 18.1411 187.972 18.3143 187.868L21.2672 186.094L20.8298 185.852L26.7355 182.303L27.1728 182.546L33.0785 178.997L32.6411 178.755L38.5468 175.206L38.9841 175.449L44.8898 171.9L44.4524 171.658L50.3581 168.109L50.7954 168.352L56.7011 164.803L56.2637 164.561L62.1694 161.012L62.6067 161.255L68.5124 157.706L68.075 157.464L73.9807 153.916L74.418 154.158L80.3237 150.609L79.8863 150.367L85.792 146.819L86.2293 147.061L92.135 143.512L91.6976 143.27L97.6033 139.722L98.0406 139.964L100.993 138.19C101.167 138.086 101.366 138.007 101.578 137.952L101.338 137.629C101.93 137.477 102.601 137.465 103.198 137.597L102.969 137.928C103.184 137.975 103.386 138.047 103.562 138.145L106.916 140.004L107.345 139.746L114.052 143.463L113.624 143.721L120.331 147.438L120.76 147.181L127.467 150.898L127.039 151.156L133.746 154.873L134.175 154.616L140.882 158.333L140.454 158.59L147.161 162.308L147.59 162.05L154.297 165.768L153.869 166.025L160.576 169.743L161.005 169.485L167.713 173.203L167.284 173.46L170.638 175.319C170.814 175.417 170.947 175.53 171.038 175.652L171.601 175.507C171.853 175.845 171.86 176.233 171.62 176.58L171.052 176.455C170.966 176.58 170.837 176.698 170.664 176.802L167.711 178.576L168.148 178.818L162.243 182.367L161.805 182.124L155.9 185.673L156.337 185.915L150.431 189.464L149.994 189.221L144.088 192.77L144.526 193.012L138.62 196.561L138.183 196.318L132.277 199.867L132.714 200.109L126.809 203.658L126.371 203.415L120.466 206.964L120.903 207.206L114.997 210.755L114.56 210.512L108.654 214.061L109.092 214.303L103.186 217.852L102.749 217.609L96.843 221.158L97.2804 221.4L91.3747 224.948L90.9374 224.706L87.9846 226.48C87.8114 226.584 87.6122 226.664 87.3997 226.718L87.6395 227.041Z" fill="#4548B0" fill-opacity="0.1" stroke="#5D64D2" stroke-dasharray="7 7"/>
<defs>
<linearGradient id="paint0_linear" x1="536.007" y1="70.161" x2="611.226" y2="26.0675" gradientUnits="userSpaceOnUse">
<stop stop-color="#DEDFF4"/>
<stop offset="1" stop-color="#DEDFF4" stop-opacity="0"/>
</linearGradient>
<linearGradient id="paint1_linear" x1="247.225" y1="52.8612" x2="322.265" y2="7.18056" gradientUnits="userSpaceOnUse">
<stop stop-color="#DEDFF4"/>
<stop offset="1" stop-color="#DEDFF4" stop-opacity="0"/>
</linearGradient>
<linearGradient id="paint2_linear" x1="234.422" y1="142.479" x2="309.462" y2="96.7981" gradientUnits="userSpaceOnUse">
<stop stop-color="#DEDFF4"/>
<stop offset="1" stop-color="#DEDFF4" stop-opacity="0"/>
</linearGradient>
<linearGradient id="paint3_linear" x1="426.621" y1="-1.02326" x2="494.646" y2="37.0866" gradientUnits="userSpaceOnUse">
<stop stop-color="#DEDFF4" stop-opacity="0"/>
<stop offset="0.44993" stop-color="#DEDFF4"/>
</linearGradient>
<linearGradient id="paint4_linear" x1="470.283" y1="189.35" x2="587" y2="118" gradientUnits="userSpaceOnUse">
<stop stop-color="#DEDFF4"/>
<stop offset="1" stop-color="#DEDFF4" stop-opacity="0"/>
</linearGradient>
</defs>
</svg>
